<?xml version="1.0" standalone="no"?><!DOCTYPE svg PUBLIC "-//W3C//DTD SVG 1.1//EN" "http://www.w3.org/Graphics/SVG/1.1/DTD/svg11.dtd"><svg t="1654585555266" class="icon" viewBox="0 0 1024 1024" version="1.1" xmlns="http://www.w3.org/2000/svg" p-id="25416" xmlns:xlink="http://www.w3.org/1999/xlink" width="200" height="200"><defs><style type="text/css"></style></defs><path d="M1012.309471 182.532804a109.278848 109.278848 0 0 0-34.369151-75.260914l-72.752217-64.77456a107.623107 107.623107 0 0 0-151.374785 0L339.978637 457.736881l-5.017394 5.017394c-30.104366 29.753148-58.101426 59.757166-58.703514 78.221177l-37.429761 209.476211a21.624969 21.624969 0 0 0 4.013915 17.81175 20.571317 20.571317 0 0 0 16.256358 7.927483h0.401392a12.34279 12.34279 0 0 0 3.813219-0.602087l227.789701-40.139154c8.479396-1.505218 25.689059-17.510706 58.452643-50.173943 3.462002-3.261306 6.974178-6.924004 10.034789-9.633397l426.177471-422.966339a89.159096 89.159096 0 0 0 26.542015-70.143172zM332.803763 681.914058l21.825665-122.273899c1.40487-1.90661 3.462002-4.465481 6.321917-7.827135a41.393503 41.393503 0 0 0 8.078005 11.690528l93.423881 93.423882s0.451565 0.401392 0.652262 0.652261l-1.756088 1.605566z m187.449851-80.278309c-0.351218-0.401392-0.702435-0.852957-1.103827-1.254349L425.725905 506.756823a40.992111 40.992111 0 0 0-12.794355-8.579744l268.280072-269.183204a40.139154 40.139154 0 0 0 8.128179 11.841051L782.713509 334.258807c1.154001 1.154001 2.358175 2.15748 3.56235 3.160959z m409.419373-406.408937L842.92224 281.375472c-1.053653-1.304523-2.15748-2.609045-3.361654-3.863394l-93.524229-93.423882a38.483414 38.483414 0 0 0-11.891225-8.178352l76.164045-76.465089a27.445147 27.445147 0 0 1 38.533588 0l1.455045 1.40487 1.555392 1.404871 71.698564 63.921603a28.749669 28.749669 0 0 1 8.629919 19.46749v2.408349a9.081484 9.081484 0 0 1-2.508698 7.1247z"  p-id="25417"></path><path d="M901.876623 545.691803a40.139154 40.139154 0 0 0-40.139154 40.139154v275.304424a73.655348 73.655348 0 0 1-73.555 73.605175H162.764271a73.655348 73.655348 0 0 1-73.555001-73.605175V209.175168A73.655348 73.655348 0 0 1 162.764271 135.469646h320.711842a40.139154 40.139154 0 0 0 0-80.278309H162.764271A153.983831 153.983831 0 0 0 9.03131 209.175168v651.91004a153.933657 153.933657 0 0 0 153.732961 153.783134H788.232642a153.983831 153.983831 0 0 0 153.783135-153.783134v-275.304425a40.139154 40.139154 0 0 0-40.139154-40.08898z"  p-id="25418"></path></svg>
