<?xml version="1.0" standalone="no"?><!DOCTYPE svg PUBLIC "-//W3C//DTD SVG 1.1//EN" "http://www.w3.org/Graphics/SVG/1.1/DTD/svg11.dtd"><svg t="1654502470935" class="icon" viewBox="0 0 1024 1024" version="1.1" xmlns="http://www.w3.org/2000/svg" p-id="1892" width="100" height="100" xmlns:xlink="http://www.w3.org/1999/xlink"><defs><style type="text/css"></style></defs><path d="M988.968421 385.347368v-5.389473-2.694737s0-2.694737-2.694737-2.694737c0 0 0-2.694737-2.694737-2.694737l-458.105263-331.452631s-2.694737 0-2.694737-2.694737h-2.694736-2.694737-2.694737-2.694737s-2.694737 0-2.694737 2.694737l-458.105263 331.452631s0 2.694737-2.694737 2.694737c0 0 0 2.694737-2.694737 2.694737v557.810526c0 29.642105 24.252632 53.894737 56.589474 53.894737h843.452632c29.642105 0 56.589474-24.252632 56.589473-53.894737l-13.473684-549.726316zM512 579.368421L91.621053 382.652632 512 78.147368l423.073684 304.505264L512 579.368421z m420.378947 371.873684H91.621053c-10.778947 0-18.863158-8.084211-18.863158-16.168421V414.989474l431.157894 202.105263c2.694737 0 5.389474 2.694737 8.084211 2.694737 2.694737 0 5.389474 0 8.084211-2.694737l431.157894-202.105263v520.08421c0 8.084211-8.084211 16.168421-18.863158 16.168421z"  p-id="1893"></path></svg>
